<mxfile host="app.diagrams.net" agent="Mozilla/5.0 (Windows NT 10.0; Win64; x64) AppleWebKit/537.36 (KHTML, like Gecko) Chrome/135.0.0.0 Safari/537.36" version="26.2.14">
  <diagram name="Sayfa -1" id="QYzK-12sJiyQNZtdyMPE">
    <mxGraphModel grid="1" page="1" gridSize="10" guides="1" tooltips="1" connect="1" arrows="1" fold="1" pageScale="1" pageWidth="827" pageHeight="1169" background="light-dark(#000000, #121212)" math="0" shadow="0">
      <root>
        <mxCell id="0" />
        <mxCell id="1" parent="0" />
        <mxCell id="-a0U2m_4fcDsCp2ZZJVR-1" value="" style="rounded=0;whiteSpace=wrap;html=1;" vertex="1" parent="1">
          <mxGeometry x="140" y="320" width="570" height="620" as="geometry" />
        </mxCell>
        <mxCell id="-a0U2m_4fcDsCp2ZZJVR-2" value="&lt;span style=&quot;font-size: 15px;&quot;&gt;&lt;b&gt;Chicken Breast Cooked&lt;/b&gt;&lt;/span&gt;" style="text;html=1;align=center;verticalAlign=middle;whiteSpace=wrap;rounded=0;" vertex="1" parent="1">
          <mxGeometry x="340" y="330" width="170" height="30" as="geometry" />
        </mxCell>
        <mxCell id="-a0U2m_4fcDsCp2ZZJVR-4" value="" style="line;strokeWidth=2;html=1;" vertex="1" parent="1">
          <mxGeometry x="140" y="370" width="570" height="10" as="geometry" />
        </mxCell>
        <mxCell id="-a0U2m_4fcDsCp2ZZJVR-23" value="" style="line;strokeWidth=2;html=1;" vertex="1" parent="1">
          <mxGeometry x="175" y="890" width="505" height="10" as="geometry" />
        </mxCell>
        <mxCell id="-a0U2m_4fcDsCp2ZZJVR-24" value="" style="swimlane;startSize=0;" vertex="1" parent="1">
          <mxGeometry x="420" y="900" width="50" height="35" as="geometry" />
        </mxCell>
        <mxCell id="-a0U2m_4fcDsCp2ZZJVR-32" value="" style="line;strokeWidth=2;direction=south;html=1;" vertex="1" parent="1">
          <mxGeometry x="170" y="375" width="10" height="565" as="geometry" />
        </mxCell>
        <mxCell id="-a0U2m_4fcDsCp2ZZJVR-33" value="" style="line;strokeWidth=2;direction=south;html=1;" vertex="1" parent="1">
          <mxGeometry x="675" y="375" width="10" height="565" as="geometry" />
        </mxCell>
        <mxCell id="-a0U2m_4fcDsCp2ZZJVR-34" value="&lt;font style=&quot;font-size: 14px;&quot;&gt;&lt;b style=&quot;&quot;&gt;100&lt;/b&gt;&lt;/font&gt;" style="rounded=1;whiteSpace=wrap;html=1;" vertex="1" parent="1">
          <mxGeometry x="222.5" y="400" width="410" height="30" as="geometry" />
        </mxCell>
        <mxCell id="-a0U2m_4fcDsCp2ZZJVR-36" value="&lt;b&gt;&lt;font style=&quot;font-size: 14px;&quot;&gt;GRAM&lt;/font&gt;&lt;/b&gt;" style="rounded=1;whiteSpace=wrap;html=1;" vertex="1" parent="1">
          <mxGeometry x="222.5" y="460" width="410" height="30" as="geometry" />
        </mxCell>
        <mxCell id="-a0U2m_4fcDsCp2ZZJVR-40" value="&lt;font style=&quot;font-size: 13px;&quot;&gt;&lt;b&gt;Add&amp;nbsp;&lt;/b&gt;&lt;/font&gt;" style="ellipse;whiteSpace=wrap;html=1;" vertex="1" parent="1">
          <mxGeometry x="385.25" y="840" width="84.5" height="40" as="geometry" />
        </mxCell>
        <mxCell id="-a0U2m_4fcDsCp2ZZJVR-41" value="&lt;b&gt;&lt;font style=&quot;font-size: 14px;&quot;&gt;CALORIE&lt;/font&gt;&lt;/b&gt;&lt;div&gt;&lt;b&gt;&lt;font style=&quot;font-size: 14px;&quot;&gt;110 KCAL&lt;/font&gt;&lt;/b&gt;&lt;/div&gt;" style="rounded=0;whiteSpace=wrap;html=1;" vertex="1" parent="1">
          <mxGeometry x="220" y="560" width="120" height="60" as="geometry" />
        </mxCell>
        <mxCell id="-a0U2m_4fcDsCp2ZZJVR-42" value="&lt;b&gt;&lt;font style=&quot;font-size: 14px;&quot;&gt;FAT&lt;/font&gt;&lt;/b&gt;&lt;div&gt;&lt;b&gt;&lt;font style=&quot;font-size: 14px;&quot;&gt;1,24 G&lt;/font&gt;&lt;/b&gt;&lt;/div&gt;" style="rounded=0;whiteSpace=wrap;html=1;" vertex="1" parent="1">
          <mxGeometry x="510" y="560" width="120" height="60" as="geometry" />
        </mxCell>
        <mxCell id="-a0U2m_4fcDsCp2ZZJVR-43" value="&lt;b&gt;&lt;font style=&quot;font-size: 14px;&quot;&gt;CARB&lt;/font&gt;&lt;/b&gt;&lt;div&gt;&lt;b&gt;&lt;font style=&quot;font-size: 14px;&quot;&gt;0G&lt;/font&gt;&lt;/b&gt;&lt;/div&gt;" style="rounded=0;whiteSpace=wrap;html=1;" vertex="1" parent="1">
          <mxGeometry x="220" y="640" width="120" height="60" as="geometry" />
        </mxCell>
        <mxCell id="-a0U2m_4fcDsCp2ZZJVR-44" value="&lt;b&gt;&lt;font style=&quot;font-size: 14px;&quot;&gt;PROTEIN&lt;/font&gt;&lt;/b&gt;&lt;div&gt;&lt;b&gt;&lt;font style=&quot;font-size: 14px;&quot;&gt;23.09G&lt;/font&gt;&lt;/b&gt;&lt;/div&gt;" style="rounded=0;whiteSpace=wrap;html=1;" vertex="1" parent="1">
          <mxGeometry x="510" y="640" width="120" height="60" as="geometry" />
        </mxCell>
        <mxCell id="-a0U2m_4fcDsCp2ZZJVR-45" value="&lt;font style=&quot;font-size: 15px;&quot;&gt;&lt;b&gt;NUTRITIONAL VALUE&lt;/b&gt;&lt;/font&gt;" style="text;html=1;align=center;verticalAlign=middle;whiteSpace=wrap;rounded=0;" vertex="1" parent="1">
          <mxGeometry x="230" y="720" width="390" height="30" as="geometry" />
        </mxCell>
        <mxCell id="-a0U2m_4fcDsCp2ZZJVR-47" value="&lt;b&gt;&lt;font style=&quot;font-size: 14px;&quot;&gt;100g&lt;/font&gt;&lt;/b&gt;" style="text;html=1;align=center;verticalAlign=middle;whiteSpace=wrap;rounded=0;" vertex="1" parent="1">
          <mxGeometry x="570" y="750" width="60" height="30" as="geometry" />
        </mxCell>
        <mxCell id="-a0U2m_4fcDsCp2ZZJVR-48" value="&lt;b&gt;&lt;font style=&quot;font-size: 14px;&quot;&gt;Portion&lt;/font&gt;&lt;/b&gt;" style="text;html=1;align=center;verticalAlign=middle;whiteSpace=wrap;rounded=0;" vertex="1" parent="1">
          <mxGeometry x="220" y="750" width="60" height="30" as="geometry" />
        </mxCell>
        <mxCell id="-a0U2m_4fcDsCp2ZZJVR-50" value="&lt;b&gt;&lt;font style=&quot;font-size: 14px;&quot;&gt;Energy&lt;/font&gt;&lt;/b&gt;" style="text;html=1;align=center;verticalAlign=middle;whiteSpace=wrap;rounded=0;" vertex="1" parent="1">
          <mxGeometry x="220" y="790" width="60" height="30" as="geometry" />
        </mxCell>
        <mxCell id="-a0U2m_4fcDsCp2ZZJVR-51" value="&lt;b&gt;&lt;font style=&quot;font-size: 14px;&quot;&gt;460 kj&lt;/font&gt;&lt;/b&gt;" style="text;html=1;align=center;verticalAlign=middle;whiteSpace=wrap;rounded=0;" vertex="1" parent="1">
          <mxGeometry x="570" y="790" width="60" height="30" as="geometry" />
        </mxCell>
        <mxCell id="-a0U2m_4fcDsCp2ZZJVR-52" value="&lt;b&gt;&lt;font style=&quot;font-size: 14px;&quot;&gt;110 kcal&lt;/font&gt;&lt;/b&gt;" style="text;html=1;align=center;verticalAlign=middle;whiteSpace=wrap;rounded=0;" vertex="1" parent="1">
          <mxGeometry x="560" y="820" width="60" height="30" as="geometry" />
        </mxCell>
        <mxCell id="-a0U2m_4fcDsCp2ZZJVR-53" value="" style="line;strokeWidth=2;html=1;" vertex="1" parent="1">
          <mxGeometry x="175" y="540" width="505" height="10" as="geometry" />
        </mxCell>
        <mxCell id="-a0U2m_4fcDsCp2ZZJVR-57" value="" style="html=1;shadow=0;dashed=0;align=center;verticalAlign=middle;shape=mxgraph.arrows2.arrow;dy=0.6;dx=40;flipH=1;notch=0;" vertex="1" parent="1">
          <mxGeometry x="150" y="325" width="70" height="40" as="geometry" />
        </mxCell>
        <mxCell id="-a0U2m_4fcDsCp2ZZJVR-59" value="" style="line;strokeWidth=2;html=1;" vertex="1" parent="1">
          <mxGeometry x="225" y="770" width="390" height="10" as="geometry" />
        </mxCell>
        <mxCell id="-a0U2m_4fcDsCp2ZZJVR-60" value="" style="line;strokeWidth=2;html=1;" vertex="1" parent="1">
          <mxGeometry x="225" y="810" width="395" height="10" as="geometry" />
        </mxCell>
        <mxCell id="-a0U2m_4fcDsCp2ZZJVR-61" value="" style="line;strokeWidth=2;html=1;" vertex="1" parent="1">
          <mxGeometry x="560" y="840" width="60" height="10" as="geometry" />
        </mxCell>
        <mxCell id="-a0U2m_4fcDsCp2ZZJVR-63" value="" style="html=1;verticalLabelPosition=bottom;align=center;labelBackgroundColor=#ffffff;verticalAlign=top;strokeWidth=2;strokeColor=#0080F0;shadow=0;dashed=0;shape=mxgraph.ios7.icons.looking_glass;" vertex="1" parent="1">
          <mxGeometry x="605" y="407.5" width="17.5" height="15" as="geometry" />
        </mxCell>
        <mxCell id="-a0U2m_4fcDsCp2ZZJVR-64" value="" style="html=1;verticalLabelPosition=bottom;align=center;labelBackgroundColor=#ffffff;verticalAlign=top;strokeWidth=2;strokeColor=#0080F0;shadow=0;dashed=0;shape=mxgraph.ios7.icons.looking_glass;" vertex="1" parent="1">
          <mxGeometry x="607.5" y="467.5" width="17.5" height="15" as="geometry" />
        </mxCell>
        <mxCell id="aEX4_WpkckHaVc0FIkJA-3" value="&lt;div&gt;&lt;br&gt;&lt;/div&gt;&lt;span style=&quot;white-space: pre;&quot;&gt;&#x9;&lt;/span&gt;HOME&lt;div&gt;&lt;br&gt;&lt;/div&gt;" style="text;html=1;align=center;verticalAlign=middle;whiteSpace=wrap;rounded=0;" vertex="1" parent="1">
          <mxGeometry x="430" y="902.5" width="17" height="30" as="geometry" />
        </mxCell>
      </root>
    </mxGraphModel>
  </diagram>
</mxfile>
